<?xml version="1.0" encoding="UTF-8"?>
<svg xmlns="http://www.w3.org/2000/svg" width="612" height="792" xmlns:xlink="http://www.w3.org/1999/xlink" version="1.1" viewBox="0 0 612 792">
  <defs>
    <style>
      .cls-1 {
        fill: none;
      }

      .cls-2 {
        fill: #f89d9a;
      }

      .cls-3 {
        fill: #1775b8;
      }

      .cls-4 {
        fill: #f0dfb3;
      }

      .cls-5 {
        fill: #e34f4d;
      }

      .cls-6 {
        fill: #c5e0db;
      }

      .cls-7 {
        fill: #f9ca79;
      }

      .cls-8 {
        fill: #353f85;
      }

      .cls-9 {
        fill: #f8808d;
      }

      .cls-10 {
        fill: #fff;
      }

      .cls-11 {
        fill: #ff5f0f;
      }

      .cls-12 {
        fill: #053ca9;
      }

      .cls-13 {
        fill: #fd4f32;
      }

      .cls-14 {
        fill: #51b4ac;
      }

      .cls-15 {
        fill: #2d9fb8;
      }

      .cls-16 {
        fill: url(#Motivo_nuevo_2);
      }

      .cls-17 {
        fill: #fdf7ed;
      }

      .cls-18 {
        fill: #f80046;
      }
    </style>
    <pattern id="Motivo_nuevo_2" data-name="Motivo nuevo 2" x="0" y="0" width="74.27904" height="74.27903" patternTransform="translate(-2358.7647635 19611.3180167) rotate(33.1868913) scale(2.3727384) skewX(-.0353633)" patternUnits="userSpaceOnUse" viewBox="0 0 74.27904 74.27903">
      <g>
        <rect class="cls-1" y="0" width="74.27904" height="74.27903"/>
        <path class="cls-2" d="M4.91589,75.33105c1.49296-1.2008,2.72705-.917,3.96315.5396.551.64918,2.0945,2.98205.7126,3.4583-2.0969.72268-2.3852-2.18579-1.9918-3.43681.6601-2.09885,2.1702-2.9108,4.1849-3.33999.5264-.11213.4203-.804,0-.96428-4.0994-1.56317-8.08068,5.97345-4.5497,8.515999,1.2912.929807,3.734.864675,4.112-.982929.3498-1.70954-1.0026-3.66398-2.2422-4.69316-1.503-1.24784-3.87417-1.5451-4.76349.56882-.14944.35522.34517.51893.57454.33445h0Z"/>
        <g>
          <path class="cls-8" d="M8.80064,58.5556c.4363.3359.9668.2778,1.4645.3268.2772.0273.7002.0762.8042-.1556.1344-.2997-.2724-.4438-.4822-.6243-.2385-.2052-.4822-.4045-.7237-.6063l.0001-.0001c-.1171-.4033-.4686-.6132-.7364-.8921h-.0001c.0001-.0001.0001,0,.0002-.0001-.912-1.1256-1.4541-2.4258-1.8024-3.8175.0211-.1226-.0023-.229-.1106-.3045v-.0001c-.3432-.9109-.4757-.9915-1.20391-.7323-.33092.1223-.45612.3789-.46477.7118l-.00009.0001c-.42673,1.6321-.11831,3.1194.88001,4.4711.52586.93,1.45316,1.2726,2.37516,1.6231Z"/>
          <path class="cls-13" d="M57.97084,69.1425c.5919-.1248.8868.2499,1.1443.7146.7559,1.36388.2921,2.67138-.1848,3.96401-.121.32807-.2697.69132-.5833.92257-.0284.20228-.14.34545-.3155.44303,0,.00008-.0002.00016-.0003.00025-.1111.29557-.4198.37442-.6234.56856h-.0002c.0001,0,.0002.00008.0003.00008-.287.33739-.5747.781-.853-.00655-.1058-.33882-.2116-.67772-.3174-1.01654.0674.00563.1415.02259.205.02167-.0684-.00697-.136-.01629-.205-.02167-.021-.04232-.0289-.08699-.0235-.13393q.0001-.00008.0002-.00017c-.3059-.55839-.0197-1.09631.1192-1.60659.2075-.76245.5389-1.49122.8176-2.23435-.0168-.17397-.0423-.34967.0987-.49187h.0001c-.0108-.5363.1214-.9967.721-1.1231ZM57.77384,75.16597c-.0229-.01487-.0464-.02805-.0697-.04191.0202.021.0432.03544.0697.04191ZM58.43694,69.9127c-.0002.0004-.0004.0007-.0005.001h.0013c-.0003-.0005-.0005-.0005-.0008-.001Z"/>
          <path class="cls-9" d="M68.01044,14.5603c.0456-.1946.0911-.3894.1366-.584.008-.2911-.1832-.3831-.4248-.4247-.3222-.124-.4924.1049-.6904.288-.592.5476-1.1803,1.0998-1.7899,1.6273-.3452.2986-.7694.5141-.9305.984-.1664.1833-.347.3908-.23.641.0978.2093.3653.1597.5308.11,1.4699-.4409,2.6699-1.2412,3.3982-2.6416Z"/>
          <path class="cls-18" d="M40.71734,59.5287l.1839.0681c.9119,1.101,1.0036,1.6566.4441,2.6707-.1513.2742-.2963.5517-.4441.8277-.3124.4381.0831.4499.3149.4525.5823.0063,1.017-.2819,1.3003-.7927.3326-.4348.4425-.9441.4929-1.4733-.0179-.0938-.036-.1877-.0539-.2816.0543-1.1657-.646-1.8524-1.5355-2.419-.2436-.173-.1023-.3925-.0609-.5903.1515-.7243.1643-1.45.0187-2.1737-.3159-1.5707-1.6706-3.1407-3.6661-2.6883-.6223.1411-1.3934.2095-1.7039.9772-.0655.1622-.1445.3426.0062.4788.1776.1603.2875-.0279.4251-.1203,1.1216-.7525,2.1839-.7156,3.1376.0968.8524.994.8114,2.114.4625,3.2776.0002.0006.0005.0009.0008.0015-.6317-.3662-1.3076-.4815-2.0256-.3507-.444.0808-.7697.3351-.8879.7617-.1058.3813-.0828.7729.2294,1.0929.7761.7956,2.4869.8929,3.3615.1844Z"/>
          <path class="cls-7" d="M15.78714,24.7196c.7606.6678,1.1438.7394,1.5959.2986-.089-.1512-.178-.3025-.267-.4538-.0971-.4417-.3395-.7848-.7079-1.0423-.0476-.0483-.095-.0967-.1425-.1451h.0001c-.3289-.5162-.6768-1.0163-1.2388-1.3099-.2791-.1458-.5296-.1727-.7849.1004-.2497.2669-.1433.5006.0005.7233.4354.6748.8773,1.3483,1.5446,1.8288Z"/>
          <path class="cls-7" d="M28.70864,70.2658c.7606.66775,1.1438.73938,1.5959.2986-.089-.1512-.178-.3025-.267-.4538-.0971-.4417-.3395-.7848-.7079-1.0423-.0476-.0483-.095-.0967-.1425-.1451h.0001c-.3289-.5162-.6768-1.0163-1.2388-1.3099-.2791-.1458-.5296-.1727-.7849.1003-.2497.267-.1433.5007.0005.7234.4354.6747.8773,1.3483,1.5446,1.8288Z"/>
          <path class="cls-5" d="M47.81024,14.0192c-.9952.0138-1.9893.0527-2.9838-.0128-.2907-.2472-.5813-.4943-.8719-.7415-.0134-.0402-.019-.0814-.0166-.1237.8444-.3386,1.4464-.9142,1.7451-1.786l.0001-.0001c.0414-.1009.0828-.2018.1241-.3026.0237-.3414.0661-.6828.0673-1.0243.0032-.9096-.6485-1.3355-1.4639-.9211-1.1175.568-1.8162,1.4764-1.9436,2.7451-.0428.4251-.2251.5256-.6065.5421-.3488.0152-.6107-.1284-.8754-.3066-.4643-.407-.7118-.8789-.6096-1.5331.1723-1.1032.6567-1.9644,1.6893-2.4688.2059-.1005.4846-.1523.3934-.5071-.0786-.3058-.2985-.3671-.5576-.3632-.8339.0129-1.4137.4415-1.8246,1.1373-.3991.2838-.5787.7189-.7625,1.1424-.8047,1.8542.2394,3.9822,2.0888,4.2745q1.2887.2822,2.0668.9875c1.2357.991,2.6687.7788,4.0795.6491.3666-.0336.8011-.028.9687-.494.2146-.6305.0358-.9033-.7071-.8931Z"/>
          <path class="cls-15" d="M54.87004,33.2546s-.0001.0001-.0001.0002c-.2105.5987.0989.7028.5694.546.266-.0888.5052-.2794.6714-.5291.8044-.8291,1.094-1.8298.987-2.9625-.0666-.4495-.3279-.8062-.7558-.8411-.3604-.0294-.5955.272-.5433.6887-.0145.3912-.1489.7475-.2711,1.1167-.2186.6602-.6612,1.2482-.6575,1.9811Z"/>
          <path class="cls-14" d="M31.51344,31.9046c-.0767-.665.0523-1.3044.329-1.9253h0c.0729-.2887.2327-.5165.4785-.6842.1802-.1335.3259-.3293.5833-.3239l-.0016-.0038s0-.0001-.0001-.0001h.0001v-.0001h0c.4258-.204.8654-.3029,1.3347-.177.3827.0151.7176.1744,1.0477.3478.2366.144.4732.288.7097.432.105.0863.21.1727.3149.259.4311.3049.6952.7221.8265,1.2287.0678.1825-.0482.3093-.1351.4449.1796.7076-.0681,1.2706-.5893,1.7412h.0001c-.2555.3715-.6262.6067-.9959.8432-.0002-.0001-.0004-.0003-.0005-.0004,0,.0002.0002.0004.0002.0005-.1488.0654-.2977.1309-.4467.1964-.5721.2851-1.154.458-1.7776.1556-.291-.0593-.5693-.1415-.7372-.418,0-.0001.0001-.0002.0001-.0004,0,.0001-.0001.0002-.0002.0003-.1346-.1357-.3329-.2279-.3178-.4657h0c-.1379-.0613-.2205-.1665-.2495-.3142-.2145-.2964-.3612-.6151-.3277-.9933-.0488-.1254-.0597-.2383-.0456-.3432ZM32.75844,30.57c-.0073.0215-.0147.0429-.0285.0613.0136.0015.0211-.0025.035-.0007l-.0037-.0588c-.001-.0006-.0019-.0012-.0028-.0018Z"/>
          <path class="cls-17" d="M24.99534,10.5897c-.1491-.4379-.4967-.6279-.9136-.7313-.0001-.0001-.0001,0-.0002-.0001-.4918-.2722-.9208-.1181-1.3262.1955,0,.0001.0001.0002.0001.0002,0,0-.0001,0-.0001-.0001-.3248.1567.1121.3741-.0542.5689-.575.6735-.6538.9005-.6339,1.6183h.0001c-.0484.1118-.0661.2155.0729.2781.4197,1.0319,1.0577,1.27,2.0032.7475q-.0001-.0001-.0002-.0001h.0003l.0404.0162.0233-.0367c.2254-.0586.3921-.1786.4407-.4219l-.0001-.0001c.6713-.6585.7713-1.4056.3475-2.2344Z"/>
          <path class="cls-4" d="M21.35834,43.1401l2.1229-.0779c.2392.0024.3719.2779.2245.4663l-1.3924,1.5945c-.0584.0749-.0764.1737-.0479.2643l.5702,1.8144c.0718.2281-.1493.4395-.374.3576l-1.787-.6509c-.0892-.0326-.1888-.0191-.2661.036l-1.7555,1.3848c-.2746.2856-.4766.1181-.4681-.1209l.2853-2.3068c.0034-.0949-.0402-.1854-.1164-.2419l-1.8547-1.2362c-.1921-.1424-.0815-.3094.1484-.3752l2.0991-.5543c.0914-.0261.164-.0956.1942-.1856l.5199-2.1217c.076-.2268.3791-.2679.5128-.0696l1.1483,1.8958c.0531.0788.1416.1264.2365.1273Z"/>
          <polygon class="cls-6" points="71.00154 29.1923 73.93084 34.6988 77.55644 28.6335 71.00154 29.1923"/>
          <path class="cls-2" d="M4.91589,1.052c1.49296-1.2007,2.72705-.917,3.96315.5397.551.6491,2.0945,2.982.7126,3.4582-2.0969.7227-2.3852-2.1857-1.9918-3.4368.6601-2.0988,2.1702-2.9108,4.1849-3.3399.5264-.1122.4203-.804,0-.9643C7.68534-4.2543,3.70406,3.2823,7.23504,5.8249c1.2912.9298,3.734.8646,4.112-.983.3498-1.7095-1.0026-3.6639-2.2422-4.6931-1.503-1.2479-3.87417-1.5451-4.76349.5688-.14944.3552.34517.5189.57454.3344h0Z"/>
          <path class="cls-3" d="M52.21434,46.5971c1.1467-1.9059,4.9706-.0076,5.3081,1.6571.1298.6398-.7984,3.4196-1.7634,1.8786-.4768-.7616.8292-1.7623,1.3621-2.0148,4.7539-2.2528,5.7458,5.9094,1.6666,5.5883.2796.2796.5592.5592.8388.8387-.0917-1.421,1.9951-1.132,2.8138-.8739,2.2071.6959,2.2961,2.9962,1.2,4.6986-.4111.6383.5804,1.4357,1.0701.8256,5.5641-6.9324-7.047-9.5109-6.7614-4.6503.0283.4822.3631.7986.8387.8388,4.101.3463,5.7631-5.7241,2.8676-8.207-2.4645-2.1132-7.8427-.7136-7.4489,3.0601.3928,3.7632,5.0584,1.1159,4.7043-1.8325-.3297-2.745-6.5582-5.5641-7.2174-2.027-.0573.3072.3464.5099.521.2197h0Z"/>
        </g>
        <polygon class="cls-6" points="-3.27746 29.1923 -.34811 34.6988 3.27745 28.6335 -3.27746 29.1923"/>
        <path class="cls-13" d="M57.97084-5.1365c.5919-.1248.8868.2499,1.1443.7146.7559,1.3639.2921,2.6714-.1848,3.964-.121.3281-.2697.6913-.5833.9226-.0284.2023-.14.3454-.3155.443,0,.0001-.0002.0002-.0003.0003-.1111.2955-.4198.3744-.6234.5685h-.0002c.0001,0,.0002.0001.0003.0001-.287.3374-.5747.781-.853-.0065-.1058-.3389-.2116-.6778-.3174-1.0166.0674.0056.1415.0226.205.0217-.0684-.007-.136-.0163-.205-.0217-.021-.0423-.0289-.087-.0235-.1339l.0002-.0002c-.3059-.5584-.0197-1.0963.1192-1.6066.2075-.7624.5389-1.4912.8176-2.2343-.0168-.174-.0423-.3497.0987-.4919h.0001c-.0108-.5363.1214-.9967.721-1.1231ZM57.77384.887c-.0229-.0149-.0464-.0281-.0697-.0419.0202.021.0432.0354.0697.0419ZM58.43694-4.3663c-.0002.0004-.0004.0007-.0005.001h.0013c-.0003-.0005-.0005-.0005-.0008-.001Z"/>
      </g>
    </pattern>
  </defs>
  <!-- Generator: Adobe Illustrator 28.6.0, SVG Export Plug-In . SVG Version: 1.2.0 Build 709)  -->
  <g>
    <g id="Layer_3">
      <rect class="cls-10" width="612" height="792"/>
    </g>
    <g id="tlo">
      <g>
        <rect class="cls-12" x="-33.7270911" y="147.3726617" width="679.9192588" height="499.99994" transform="translate(703.60517 91.1400933) rotate(90)"/>
        <polygon class="cls-16" points="55.7674683 737.3321704 55.7674683 57.4129116 555.7674833 57.4129116 555.7674833 737.3321704 55.7674683 737.3321704"/>
      </g>
      <path class="cls-8" d="M500.85138,403.220737"/>
      <path class="cls-8" d="M500.85138,403.220737"/>
    </g>
    <g id="white">
      <rect class="cls-10" x="94.2027361" y="389.2540787" width="437.0057278" height="310.5386975"/>
      <rect class="cls-10" x="94.2027361" y="97.9508884" width="326.3436328" height="267.0285881"/>
      <g>
        <path class="cls-11" d="M128.4677734,191.1045868l-16.6791992-56.1577148h13.7993164l10.0795898,38.2783203,10.0795898-38.2783203h12.5996094l-16.6791992,56.1577148v27.8388672h-13.199707v-27.8388672Z"/>
        <path class="cls-11" d="M162.5478516,155.1060516c0-13.4394531,7.0800781-21.1191406,20.0390625-21.1191406,12.9599609,0,20.0395508,7.6796875,20.0395508,21.1191406v43.6782227c0,13.4394531-7.0795898,21.1191406-20.0395508,21.1191406-12.9589844,0-20.0390625-7.6796875-20.0390625-21.1191406v-43.6782227ZM175.7475586,199.624118c0,6,2.6396484,8.2797852,6.8393555,8.2797852,4.2001953,0,6.8398438-2.2797852,6.8398438-8.2797852v-45.3579102c0-6-2.6396484-8.2797852-6.8398438-8.2797852-4.199707,0-6.8393555,2.2797852-6.8393555,8.2797852v45.3579102Z"/>
        <path class="cls-11" d="M223.7470703,134.9468719v64.7973633c0,6,2.6396484,8.159668,6.8398438,8.159668,4.199707,0,6.8393555-2.159668,6.8393555-8.159668v-64.7973633h12.4794922v63.9575195c0,13.4394531-6.7197266,21.1191406-19.6791992,21.1191406s-19.6791992-7.6796875-19.6791992-21.1191406v-63.9575195h13.199707Z"/>
        <path class="cls-11" d="M258.9067383,147.6661102v-12.7192383h12.7192383v11.3994141l-5.7597656,13.3198242h-5.3994141l3.4794922-12h-5.0395508Z"/>
        <path class="cls-11" d="M308.8242188,218.943454c-.7197266-2.1601562-1.1992188-3.4799805-1.1992188-10.3193359v-13.199707c0-7.7998047-2.640625-10.6796875-8.6401367-10.6796875h-4.5600586v34.1987305h-13.1992188v-83.996582h19.9189453c13.6796875,0,19.5595703,6.3598633,19.5595703,19.3193359v6.5996094c0,8.6396484-2.7597656,14.2792969-8.6396484,17.0395508,6.5996094,2.7597656,8.7597656,9.1191406,8.7597656,17.8789062v12.9594727c0,4.0800781.1201172,7.0795898,1.4394531,10.199707h-13.4394531ZM294.4248047,146.9463837v25.7988281h5.1601562c4.9199219,0,7.9199219-2.159668,7.9199219-8.8793945v-8.2797852c0-6-2.0400391-8.6396484-6.7202148-8.6396484h-6.3598633Z"/>
        <path class="cls-11" d="M342.6640625,170.3453094h18.1191406v11.9995117h-18.1191406v24.5991211h22.7988281v11.9995117h-35.9980469v-83.996582h35.9980469v11.9995117h-22.7988281v23.3989258Z"/>
        <path class="cls-11" d="M116.1083984,244.9468719h13.1992188v83.996582h-13.1992188v-83.996582Z"/>
        <path class="cls-11" d="M150.6660156,268.1060516v60.8374023h-11.8793945v-83.996582h16.5595703l13.559082,50.277832v-50.277832h11.7597656v83.996582h-13.5595703l-16.4394531-60.8374023Z"/>
        <path class="cls-11" d="M210.0644531,313.4639618l10.0800781-68.5170898h12.1191406l-12.9594727,83.996582h-19.6791992l-12.9594727-83.996582h13.3198242l10.0791016,68.5170898Z"/>
        <path class="cls-11" d="M238.3842773,244.9468719h13.199707v83.996582h-13.199707v-83.996582Z"/>
        <path class="cls-11" d="M257.3427734,244.9468719h40.7983398v11.9995117h-13.7993164v71.9970703h-13.199707v-71.9970703h-13.7993164v-11.9995117Z"/>
        <path class="cls-11" d="M317.1005859,280.3453094h18.1191406v11.9995117h-18.1191406v24.5991211h22.7998047v11.9995117h-35.9990234v-83.996582h35.9990234v11.9995117h-22.7998047v23.3989258Z"/>
        <path class="cls-11" d="M348.0605469,244.9468719h20.8789062c13.1992188,0,19.6796875,7.3198242,19.6796875,20.7592773v42.4780273c0,13.4394531-6.4804688,20.7592773-19.6796875,20.7592773h-20.8789062v-83.996582ZM361.2597656,256.9463837v59.9975586h7.4394531c4.2001953,0,6.7207031-2.159668,6.7207031-8.159668v-43.6782227c0-5.9995117-2.5205078-8.159668-6.7207031-8.159668h-7.4394531Z"/>
      </g>
      <rect class="cls-11" x="480.1120875" y="452.5687966" width="37.9584475" height="234.0174101"/>
      <g>
        <path class="cls-10" d="M500.3333156,665.9951172l6.7158203.7197266v2.71875l-12.6035156,1.4042969v-1.9257812l9.9384766-1.0625-9.9384766-.9550781v-1.9082031l10.0107422-.9902344-10.0107422-1.0263672v-1.7285156l12.6035156,1.4052734v2.6279297l-6.7158203.7207031Z"/>
        <path class="cls-10" d="M500.3333156,655.8613281l6.7158203.7197266v2.7197266l-12.6035156,1.4042969v-1.9277344l9.9384766-1.0615234-9.9384766-.9541016v-1.9091797l10.0107422-.9902344-10.0107422-1.0263672v-1.7285156l12.6035156,1.4042969v2.6289062l-6.7158203.7207031Z"/>
        <path class="cls-10" d="M500.3333156,645.7275391l6.7158203.7197266v2.71875l-12.6035156,1.4042969v-1.9257812l9.9384766-1.0625-9.9384766-.9550781v-1.9082031l10.0107422-.9902344-10.0107422-1.0263672v-1.7285156l12.6035156,1.4052734v2.6279297l-6.7158203.7207031Z"/>
        <path class="cls-10" d="M505.1399562,638.078125h1.9091797v1.9082031h-1.9091797v-1.9082031Z"/>
        <path class="cls-10" d="M497.4700343,636.8007812c-2.0166016,0-3.1689453-1.0625-3.1689453-3.0058594,0-1.9453125,1.1523438-3.0078125,3.1689453-3.0078125h6.5537109c.7021484,0,1.296875.1269531,1.7646484.3789062.234375-.0898438.2705078-.234375.2705078-.5585938v-.1796875h1.7646484v.2695312c0,.8828125-.3242188,1.4404297-.8642578,1.7109375.1435547.3964844.2333984.8632812.2333984,1.3867188,0,1.9433594-1.1523438,3.0058594-3.1689453,3.0058594h-6.5537109ZM504.1497218,634.8203125c.9003906,0,1.2431641-.3964844,1.2431641-1.0253906,0-.6308594-.3427734-1.0273438-1.2431641-1.0273438h-6.8056641c-.9003906,0-1.2421875.3964844-1.2421875,1.0273438,0,.6289062.3417969,1.0253906,1.2421875,1.0253906h6.8056641Z"/>
        <path class="cls-10" d="M494.4456203,627.6210938h9.7226562c.9003906,0,1.2246094-.3964844,1.2246094-1.0273438,0-.6289062-.3242188-1.0253906-1.2246094-1.0253906h-9.7226562v-1.8730469h9.5966797c2.0166016,0,3.1689453,1.0078125,3.1689453,2.953125,0,1.9443359-1.1523438,2.953125-3.1689453,2.953125h-9.5966797v-1.9804688Z"/>
        <path class="cls-10" d="M507.0491359,615.9375044v1.9980424l-2.2871094.3417969v2.4316406l2.2871094.3417969v1.8183594l-12.6035156-2.0166016v-2.8984375l12.6035156-2.0165971ZM503.0520656,620.4570312v-1.9091797l-6.3740234.9541016,6.3740234.9550781Z"/>
        <path class="cls-10" d="M497.9202296,613.2558594h9.1289062v1.7832031h-12.6035156v-2.484375l7.5439453-2.0351562h-7.5439453v-1.7646484h12.6035156v2.0341797l-9.1289062,2.4667969Z"/>
        <path class="cls-10" d="M494.4456203,607.9121094v-6.1220703h1.7998047v2.0703125h10.8037109v1.9804688h-10.8037109v2.0712891h-1.7998047Z"/>
        <path class="cls-10" d="M494.4456203,599.0371094h9.7226562c.9003906,0,1.2246094-.3964844,1.2246094-1.0263672s-.3242188-1.0263672-1.2246094-1.0263672h-9.7226562v-1.8730469h9.5966797c2.0166016,0,3.1689453,1.0087891,3.1689453,2.953125,0,1.9453125-1.1523438,2.953125-3.1689453,2.953125h-9.5966797v-1.9804688Z"/>
        <path class="cls-10" d="M503.3938625,589.5683594l-8.9482422-1.3505859v-2.7548828h12.6035156v1.8730469h-9.0390625l9.0390625,1.3681641v1.8720703l-8.9130859,1.4765625h8.9130859v1.7285156h-12.6035156v-2.7539062l8.9482422-1.4589844Z"/>
        <path class="cls-10" d="M494.301089,581.3613281c0-1.9267578,1.1523438-2.9169922,3.1689453-2.9169922h.3964844v1.8720703h-.5224609c-.9003906,0-1.2421875.3603516-1.2421875.9902344,0,.6308647.3417969.9902344,1.2421875.9902344,2.5927734,0,3.0791016-3.8710938,6.6796875-3.8710938,2.0166016,0,3.1689453,1.0087891,3.1689453,2.953125,0,1.9453125-1.1523438,2.953125-3.1689453,2.953125h-.7744141v-1.8730469h.9003906c.9003906,0,1.2246094-.3955078,1.2246094-1.0253906,0-.6308594-.3242188-1.0273438-1.2246094-1.0273438-2.5927734,0-3.078125,3.8710938-6.6796875,3.8710938-2.0166016,0-3.1689453-.9902344-3.1689453-2.9160156Z"/>
        <path class="cls-10" d="M497.5598781,571.4238281h1.6386719c2.0166016,0,3.1152344.9726562,3.1152344,2.953125v.9365234h4.7353516v1.9804688h-12.6035156v-2.9169922c0-1.9804688,1.0976562-2.953125,3.1142578-2.953125ZM496.245425,575.3134766h4.2675781v-.9365234c0-.6298828-.2880859-.9726562-1.1884766-.9726562h-1.890625c-.9003906,0-1.1884766.3427734-1.1884766.9726562v.9365234Z"/>
        <path class="cls-10" d="M497.4700343,570.6699219c-2.0166016,0-3.1689453-1.0625-3.1689453-3.0058594,0-1.9453125,1.1523438-3.0078125,3.1689453-3.0078125h6.5537109c2.0166016,0,3.1689453,1.0625,3.1689453,3.0078125,0,1.9433594-1.1523438,3.0058594-3.1689453,3.0058594h-6.5537109ZM504.1497218,568.6894531c.9003906,0,1.2431641-.3964844,1.2431641-1.0253906,0-.6308594-.3427734-1.0273438-1.2431641-1.0273438h-6.8056641c-.9003906,0-1.2421875.3964844-1.2421875,1.0273438,0,.6289062.3417969,1.0253906,1.2421875,1.0253906h6.8056641Z"/>
        <path class="cls-10" d="M507.0491359,559.2392578c-.3242188.1083984-.5224609.1796875-1.5488281.1796875h-1.9804688c-1.1699219,0-1.6025391.3964844-1.6025391,1.296875v.6845703h5.1318359v1.9804688h-12.6035156v-2.9892578c0-2.0527344.9541016-2.9345703,2.8984375-2.9345703h.9902344c1.296875,0,2.1425781.4140625,2.5566406,1.2958984.4140625-.9902344,1.3681641-1.3144531,2.6826172-1.3144531h1.9453125c.6113281,0,1.0615234-.0185547,1.5302734-.2158203v2.0166016ZM496.245425,561.4003906h3.8710938v-.7753906c0-.7382812-.3242188-1.1874941-1.3320312-1.1874941h-1.2421875c-.9003906,0-1.296875.3056582-1.296875,1.0078066v.9550781Z"/>
        <path class="cls-10" d="M494.4456203,556.7207031v-6.1220703h1.7998047v2.0712891h10.8037109v1.9804688h-10.8037109v2.0703125h-1.7998047Z"/>
        <path class="cls-10" d="M494.301089,547.0722656c0-1.9267578,1.1523438-2.9169922,3.1689453-2.9169922h.3964844v1.8720703h-.5224609c-.9003906,0-1.2421875.3603516-1.2421875.9902344,0,.6308594.3417969.9902344,1.2421875.9902344,2.5927734,0,3.0791016-3.8710938,6.6796875-3.8710938,2.0166016,0,3.1689453,1.0087891,3.1689453,2.953125,0,1.9453125-1.1523438,2.953125-3.1689453,2.953125h-.7744141v-1.8730469h.9003906c.9003906,0,1.2246094-.3955078,1.2246094-1.0253906,0-.6308594-.3242188-1.0273438-1.2246094-1.0273438-2.5927734,0-3.078125,3.8710938-6.6796875,3.8710938-2.0166016,0-3.1689453-.9902344-3.1689453-2.9160156Z"/>
        <path class="cls-10" d="M502.3499171,537.2617188h1.6738281c2.0166016,0,3.1689453,1.0078125,3.1689453,2.9521484s-1.1523438,2.953125-3.1689453,2.953125h-6.5537109c-2.0166016,0-3.1689453-1.0087891-3.1689453-2.953125s1.1523438-2.9521484,3.1689453-2.9521484h1.2246094v1.8720703h-1.3505859c-.9003906,0-1.2421875.3955078-1.2421875,1.0263672,0,.6298828.3417969,1.0263672,1.2421875,1.0263672h6.8056641c.9003906,0,1.2246094-.3964844,1.2246094-1.0263672,0-.6308594-.3242188-1.0263672-1.2246094-1.0263672h-1.7998047v-1.8720703Z"/>
        <path class="cls-10" d="M499.7571437,534.0761719v-2.71875h1.7998047v2.71875h3.6914062v-3.4208984h1.8007812v5.4013672h-12.6035156v-5.4013672h1.7998047v3.4208984h3.5117188Z"/>
        <path class="cls-10" d="M497.9202296,527.6679688h9.1289062v1.7832031h-12.6035156v-2.484375l7.5439453-2.0351562h-7.5439453v-1.7646484h12.6035156v2.0341797l-9.1289062,2.4667969Z"/>
        <path class="cls-10" d="M494.4456203,522.3242188v-6.1220703h1.7998047v2.0703125h10.8037109v1.9804688h-10.8037109v2.0712891h-1.7998047Z"/>
        <path class="cls-10" d="M499.7571437,513.3583984v-2.71875h1.7998047v2.71875h3.6914062v-3.4208913h1.8007812v5.4023366h-12.6035156v-5.4023366h1.7998047v3.4208913h3.5117188Z"/>
        <path class="cls-10" d="M507.0491359,504.5742188c-.3242188.1074219-.5224609.1796875-1.5488281.1796875h-1.9804688c-1.1699219,0-1.6025391.3964844-1.6025391,1.296875v.6835938h5.1318359v1.9804688h-12.6035156v-2.9882812c0-2.0527344.9541016-2.9345703,2.8984375-2.9345703h.9902344c1.296875,0,2.1425781.4140625,2.5566406,1.2958984.4140625-.9902344,1.3681641-1.3144531,2.6826172-1.3144531h1.9453125c.6113281,0,1.0615234-.0175781,1.5302734-.2158203v2.0166016ZM496.245425,506.734375h3.8710938v-.7734375c0-.7382812-.3242188-1.1884766-1.3320312-1.1884766h-1.2421875c-.9003906,0-1.296875.3056641-1.296875,1.0078125v.9541016Z"/>
        <path class="cls-10" d="M505.1399562,499.5712891h1.9091797v1.9091797h-1.9091797v-1.9091797Z"/>
        <path class="cls-10" d="M502.3499171,492.3886719h1.6738281c2.0166016,0,3.1689453,1.0078125,3.1689453,2.953125,0,1.9443359-1.1523438,2.9521484-3.1689453,2.9521484h-6.5537109c-2.0166016,0-3.1689453-1.0078125-3.1689453-2.9521484,0-1.9453125,1.1523438-2.953125,3.1689453-2.953125h1.2246094v1.8720703h-1.3505859c-.9003906,0-1.2421875.3964844-1.2421875,1.0263672,0,.6308594.3417969,1.0263672,1.2421875,1.0263672h6.8056641c.9003906,0,1.2246094-.3955078,1.2246094-1.0263672,0-.6298828-.3242188-1.0263672-1.2246094-1.0263672h-1.7998047v-1.8720703Z"/>
        <path class="cls-10" d="M497.4700343,491.3457031c-2.0166016,0-3.1689453-1.0615234-3.1689453-3.0068359,0-1.9443359,1.1523438-3.0068359,3.1689453-3.0068359h6.5537109c2.0166016,0,3.1689453,1.0625,3.1689453,3.0068359,0,1.9453125-1.1523438,3.0068359-3.1689453,3.0068359h-6.5537109ZM504.1497218,489.3652344c.9003906,0,1.2431641-.3955078,1.2431641-1.0263672,0-.6298828-.3427734-1.0263595-1.2431641-1.0263595h-6.8056641c-.9003906,0-1.2421875.3964767-1.2421875,1.0263595,0,.6308594.3417969,1.0263672,1.2421875,1.0263672h6.8056641Z"/>
        <path class="cls-10" d="M503.3938625,479.8613281l-8.9482422-1.3505859v-2.7548828h12.6035156v1.8720703h-9.0390625l9.0390625,1.3691406v1.8720703l-8.9130859,1.4765625h8.9130859v1.7285156h-12.6035156v-2.7548828l8.9482422-1.4580078Z"/>
      </g>
    </g>
  </g>
</svg>